# xmcd
#
# Track frame offsets:
#	300
#	16712
#	33277
#	50444
#	64701
#	79831
#	96912
#	115002
#	127388
#	144856
#	161268
#	177833
#	195000
#	209257
#	224387
#	241468
#	259558
#	271630
#
# Disc length: 3854 seconds
#
# Revision: 1
# Processed by: cddbd v1.5.2PL0 Copyright (c) Steve Scherf et al.
# Submitted via: audiograbber 1.83.01
#
DISCID=eb0f0a12
DTITLE=Various Artist - Country 2014
DYEAR=2014
DGENRE=Country
TTITLE0=This Is How We Roll - Florida Georgia Line Feat Luke Bryan
TTITLE1=Me Without You - Jennifer Nettles
TTITLE2=Chainsaw - Band Perry, The
TTITLE3=Famous - Kelleigh Bannen
TTITLE4=Beachin' - Jake Owen
TTITLE5=Play It Again - Luke Bryan
TTITLE6=Miss You - Darius Rucker
TTITLE7=Trippin' On Us - Lindsay Ell
TTITLE8=Look At You - Big and Rich
TTITLE9=This Is How We Roll - Florida Georgia Line Feat Luke Bryan (wvocals)
TTITLE10=Me Without You - Jennifer Nettles (wvocals)
TTITLE11=Chainsaw - Band Perry, The (wvocals)
TTITLE12=Famous - Kelleigh Bannen (wvocals)
TTITLE13=Beachin' - Jake Owen (wvocals)
TTITLE14=Play It Again - Luke Bryan (wvocals)
TTITLE15=Miss You - Darius Rucker (wvocals)
TTITLE16=Trippin' On Us - Lindsay Ell (wvocals)
TTITLE17=Look At You - Big and Rich (wvocals)
EXTD=
EXTT0=
EXTT1=
EXTT2=
EXTT3=
EXTT4=
EXTT5=
EXTT6=
EXTT7=
EXTT8=
EXTT9=
EXTT10=
EXTT11=
EXTT12=
EXTT13=
EXTT14=
EXTT15=
EXTT16=
EXTT17=
PLAYORDER=
